# xmcd CD database file
#
# Track frame offsets:
#	150
#	11543
#	24925
#	41528
#	57285
#	71352
#	88050
#	102209
#	118054
#	135000
#	147300
#	164213
#	187562
#	199162
#	215361
#	228289
#	240302
#	256678
#	269798
#	281691
#
# Disc length: 4099 seconds
#
# Revision: 0
# Processed by: cddbd v1.5.1PL2 Copyright (c) Steve Scherf et al.
# Submitted via: CDex 1.51
#
DISCID=10100114
DTITLE=Ted   Snyder - Country For Everyone
DYEAR=2005
DGENRE=Country
TTITLE0=Ted Snyder =Jezabel
TTITLE1=Ted Snyder =Tight Wrangler Jeans
TTITLE2=Ted Snyder =Faith Ain't Faith
TTITLE3=Ted Snyder =Scene Of The Crime 
TTITLE4=Ted Snyder =Honky Tonk Boogie Woogie Country Song
TTITLE5=Ted Snyder =Give Yours To Me
TTITLE6=Ted Snyder =You Can Shake It
TTITLE7=Ted Snyder =A Rock-A-Billy Cowboy
TTITLE8=Ted Snyder =The Picture
TTITLE9=Ted Snyder =One More Night
TTITLE10=Ted Snyder =Tricia
TTITLE11=Ted Snyder ='59 Caddie
TTITLE12=Ted Snyder =Little Things
TTITLE13=Ted Snyder =For The Sake Of My Children
TTITLE14=Ted Snyder =Hypnotised
TTITLE15=Ted Snyder =It's A Good Day
TTITLE16=Ted Snyder =The Girls Everybody Knew
TTITLE17=Ted Snyder =California Country Rock And Roll
TTITLE18=Ted Snyder =Bayou Boogie
TTITLE19=Ted Snyder =Your Green Eyes
EXTD=YEAR: 2005
EXTT0=
EXTT1=
EXTT2=
EXTT3=
EXTT4=
EXTT5=
EXTT6=
EXTT7=
EXTT8=
EXTT9=
EXTT10=
EXTT11=
EXTT12=
EXTT13=
EXTT14=
EXTT15=
EXTT16=
EXTT17=
EXTT18=
EXTT19=
PLAYORDER=
